<?xml version="1.0" encoding="utf-8"?>
<!-- Generator: Adobe Illustrator 23.0.5, SVG Export Plug-In . SVG Version: 6.00 Build 0)  -->
<svg version="1.1" id="Layer_1" xmlns="http://www.w3.org/2000/svg" xmlns:xlink="http://www.w3.org/1999/xlink" x="0px" y="0px"
	 viewBox="0 0 526.45 445.28" style="enable-background:new 0 0 526.45 445.28;" xml:space="preserve">
<style type="text/css">
	.st0{fill:#FCB63D;}
	.st1{fill:#82C3DD;}
	.st2{fill:#CEE6F2;}
	.st3{fill:#0B3040;}
	.st4{fill:#F7D8AC;}
	.st5{fill:#AC6828;}
	.st6{fill:#FDFEFE;}
</style>
<g>
	<path class="st0" d="M323.63,206.1c0.14-1.82,1.54-2.22,2.6-2.94c8.13-5.53,14.19-12.93,19.31-21.23c1.67-2.7,1.56-4.34-1.65-5.7
		c-5.09-2.16-9.59-5.38-13.58-9.17c-14.26-13.56-11.37-28.38,2.5-39.62c13.2-10.7,29.13-15.26,45.46-17.82
		c21.66-3.4,43.35-2.82,64.73,2.69c12.18,3.14,23.62,7.77,33.61,15.71c14.73,11.71,14.65,29.47-0.29,41
		c-10.91,8.41-23.38,13.24-36.65,16.18c-14,3.1-28.2,4.5-42.55,3.93c-4.84-0.19-9.13,1.74-13.49,3.2
		c-18.64,6.25-37.78,10.34-57.09,13.75C325.61,206.24,324.64,206.1,323.63,206.1z M441.25,167.37
		c10.98,1.38,22.04-10.74,18.03-24.22c-2.04-6.87-6.85-11.14-13.6-12.57c-7.93-1.68-14.89,0.62-19.78,7.49
		c-1.41,1.98-2.54,3.69-5.49,3.19c-13.08-2.22-26.19-4.3-39.3-6.38c-7.87-1.25-15.74-2.46-23.62-3.61
		c-2.11-0.31-4.05,0.19-5.11,2.27c-0.96,1.9-0.36,3.62,1.18,4.92c1.9,1.59,1.35,3.61,1.14,5.55c-0.19,1.81-0.61,3.6-0.81,5.41
		c-0.15,1.37,0.04,2.73,1.5,3.4c1.25,0.58,2.16-0.04,3.08-0.92c2.12-2.03,4.03-2.86,4.44,1.26c0.14,1.4,0.88,2.02,2.25,2.15
		c6.2,0.58,9.75-1.71,11.16-8.36c0.79-3.72,2.57-4,5.58-3.5c12.11,2.02,24.23,3.99,36.35,5.88c2.96,0.46,4.38,1.73,5.25,4.83
		C425.88,162.61,432.62,167.35,441.25,167.37z"/>
	<path class="st1" d="M415.94,387.28c-4.01,0.37-8.02,0.74-12.03,1.12c-5.71-3.97-12.34-5.35-18.97-6.75
		c-10.16-2.14-17,0.85-22.34,9.83c-1.79-1.24-3.61-2.02-5.94-2.02c-21.11,0-42.22-0.53-63.32-0.11c-20.42,0.4-40.83,1.67-61.24,2.72
		c-6.91,0.36-13.58-0.32-20.02-2.91c-1.05-0.64-2.1-1.28-3.15-1.92c-0.66-0.36-1.32-0.73-1.98-1.09c-0.54-0.36-1.07-0.72-1.61-1.08
		c-7.59-7.02-13.12-15.28-15.28-25.55c1.83-0.1,3.66-0.15,5.49-0.3c16.06-1.33,31.56-4.7,45.75-12.76c5.63-0.4,11.3-0.59,16.9-1.26
		c11.71-1.39,23.4-2.99,33.94-8.89c7.71-1.93,15.35-3.52,22.85,0.95c2.56,1.52,3.14-1.42,4.43-2.64
		c13.57,9.32,27.37,18.36,38.87,30.34c1.02,1.06,2.19,1.29,3.57,1.37c16.61,0.96,33.22,1.96,49.83,2.95
		C413.11,375.27,414.53,381.27,415.94,387.28z M285.88,363.9c9.51,0,18.85,0,28.97,0c-2.82-1.63-5-3.03-7.3-4.18
		c-3.95-1.97-7.85-6.78-11.57-5.67C292.13,355.2,289.43,360.22,285.88,363.9z"/>
	<path class="st2" d="M292.15,336.31c-10.54,5.9-22.23,7.5-33.94,8.89c-5.6,0.66-11.26,0.85-16.9,1.26
		c-9.33-1.26-16.78-5.28-20.43-14.45c-1.78-4.47-2.66-9.2-2.93-14.03c-0.55-9.81,0.45-19.57,1.12-29.32
		c0.49-6.99,2.36-13.71,6.87-19.39l-0.05,0.04c0.35-0.35,0.7-0.7,1.05-1.05l-0.05,0.04c1-0.01,1.99,0,2.99-0.02
		c11.66-0.21,14.25,3.19,12.34,14.82c-1.79,10.91-3.59,21.85-3.27,33c0.23,8.01,1.31,9.15,9.25,9.08c3.63,0.46,7.25,1.13,10.94,0.71
		c8.5,1.32,16.9-0.24,25.3-1.07c2.81-0.28,5.61-0.4,8.42-0.55C293.51,328.33,292.03,332.27,292.15,336.31z"/>
	<path class="st3" d="M291.14,274.35c-5.93,7.27-11.01,8.38-22.12,4.8c-4.1-5.97-7-12.37-7.18-19.76c0.73-3.97,1.6-7.89,4.2-11.16
		c4.53-4.41,8.22-9.5,11.71-14.74c3.27-4.18,6.29-8.59,9.87-12.48c5.21-5.64,12.15-6.08,17.69-0.78
		c10.39,9.94,19.17,21.16,24.91,34.5c0.65,1.51,1.21,3.13,1.44,4.75c0.39,2.67-0.59,4.41-3.63,3.44c-6.31-2.02-12.67-1.87-19.08-0.7
		c1.29-2.56,0.35-4.52-1.53-6.39c-4.83-4.78-9.55-9.66-14.35-14.47c-6.01-6.02-9.34-5.89-14.87,0.6c-1.94,2.27-3.57,4.73-4.47,7.66
		c-1.25,4.03-0.45,6.82,3.52,9.08C283.56,262.3,288.63,267.26,291.14,274.35z"/>
	<path class="st4" d="M291.14,274.35c-2.51-7.09-7.58-12.05-13.89-15.65c-3.97-2.26-4.76-5.05-3.52-9.08
		c0.91-2.93,2.53-5.39,4.47-7.66c5.53-6.49,8.86-6.61,14.87-0.6c4.8,4.81,9.52,9.69,14.35,14.47c1.89,1.87,2.82,3.83,1.53,6.39
		C302.71,265.82,297.78,271.35,291.14,274.35z"/>
	<path class="st3" d="M415.94,387.28c-1.41-6-2.83-12-4.24-18c2.54-7.02,5.27-13.97,9.7-20.07c1.11-1.53,2.26-3.8,4.64-2.93
		c1.98,0.72,1.88,2.95,1.87,4.75c-0.07,11.2-2.48,22.02-5.54,32.71C421.47,386.85,419.42,388.52,415.94,387.28z"/>
	<path class="st3" d="M362.6,391.48c5.33-8.98,12.18-11.97,22.34-9.83c6.63,1.4,13.26,2.77,18.97,6.75
		c0.86,2.36,0.05,4.01-2.36,4.47c-12.33,2.36-24.7,2.45-37.04,0.09C363.8,392.82,363.23,391.98,362.6,391.48z"/>
	<path class="st5" d="M248.19,325.17c1.5-8.52,4.27-16.71,8.27-24.26c2.84-5.37,3.78-10.23,1.32-15.72
		c3.49-1.37,7.16-3.51,8.91,2.18c-3.19,6.96-3.38,14.55-4.6,21.92c-0.99,5.53-1.97,11.05-2.96,16.58
		C255.44,326.3,251.82,325.63,248.19,325.17z"/>
	<path class="st4" d="M292.15,336.31c-0.11-4.04,1.37-7.98,0.7-12.05c7.52-6.88,22.07-3.22,24.91,6.35
		c0.43,1.44,0.75,2.83,1.67,4.02c-1.29,1.22-1.88,4.16-4.43,2.64C307.49,332.78,299.85,334.38,292.15,336.31z"/>
	<path class="st2" d="M266.69,287.37c-1.75-5.7-5.43-3.56-8.91-2.18c-2.14,0.39-2.95-0.83-3.27-2.68
		c-1.07-6.11-3.14-12.02-3.56-18.25c1.68,0.37,3.36,0.75,5.04,1.12c2.69,5.8,7.12,10.16,11.92,14.19c0.65,2.6,1.29,5.2,1.94,7.79
		C268.79,287.36,267.74,287.37,266.69,287.37z"/>
	<path class="st1" d="M266.69,287.37c1.05-0.01,2.1-0.01,3.15-0.02c1.26,8.67-3.35,15.27-7.76,21.94
		C263.31,301.92,263.5,294.34,266.69,287.37z"/>
	<path class="st4" d="M277.75,233.49c-3.49,5.24-7.18,10.33-11.71,14.74c-0.53-4.24,0.27-8.09,2.72-11.73
		C271.09,233.04,273.64,231.19,277.75,233.49z"/>
	<path class="st4" d="M267.9,279.57c-4.81-4.03-9.23-8.38-11.92-14.19c2.47-1.49,3.96-3.94,5.86-5.99
		c0.18,7.39,3.08,13.8,7.18,19.76C268.65,279.29,268.27,279.43,267.9,279.57z"/>
	<path class="st6" d="M441.25,167.37c-8.63-0.01-15.38-4.76-17.74-13.23c-0.86-3.1-2.29-4.37-5.25-4.83
		c-12.13-1.89-24.25-3.87-36.35-5.88c-3.01-0.5-4.79-0.22-5.58,3.5c-1.41,6.65-4.96,8.95-11.16,8.36c-1.37-0.13-2.11-0.74-2.25-2.15
		c-0.41-4.12-2.32-3.29-4.44-1.26c-0.92,0.88-1.83,1.5-3.08,0.92c-1.46-0.67-1.65-2.03-1.5-3.4c0.2-1.81,0.61-3.6,0.81-5.41
		c0.21-1.95,0.76-3.96-1.14-5.55c-1.54-1.3-2.15-3.01-1.18-4.92c1.05-2.08,3-2.58,5.11-2.27c7.88,1.16,15.75,2.36,23.62,3.61
		c13.11,2.09,26.22,4.16,39.3,6.38c2.96,0.5,4.08-1.2,5.49-3.19c4.89-6.87,11.85-9.17,19.78-7.49c6.74,1.43,11.56,5.7,13.6,12.57
		C463.29,156.63,452.24,168.75,441.25,167.37z M454,148.78c0-7.17-5.39-12.57-12.56-12.58c-7.33-0.01-12.66,5.54-12.57,13.1
		c0.08,6.77,5.57,12.03,12.57,12.03C448.64,161.34,454,155.99,454,148.78z"/>
	<path class="st0" d="M229.93,265.42c-1.01,0.96-2.03,1.91-3.04,2.87c0,0,0.05-0.04,0.05-0.04c-0.35,0.35-0.7,0.7-1.05,1.05
		c0,0,0.05-0.04,0.05-0.04c-1.08,0.39-2.35,0.53-3.21,1.19c-11.51,8.9-21.36,19.07-27.43,32.7c-4.89,10.98-6.72,22.48-7.13,34.19
		c-0.26,7.36,1.21,14.78,1.9,22.17c2.17,10.27,7.69,18.53,15.28,25.55c-49.15,0.08-98.29,0.16-147.44,0.21
		c-4.16,0-6.78-2.41-8.44-5.97c-1.29-2.76-1.57-5.69-1.57-8.74c0.04-100.8,0.03-201.6,0.03-302.4c0-0.83-0.03-1.67,0.01-2.5
		c0.32-8.46,5.4-13.42,13.73-13.42c52.32,0,104.63,0,156.95,0.01c7.46,0,11.32,3.83,11.32,11.24
		C229.95,130.8,229.93,198.11,229.93,265.42z M143.36,168.98c2.28-0.33,4.71-0.26,6.81-1.05c6.13-2.3,12.72-4.1,15.97-10.74
		c1.53,0.06,2.39-1.02,3.3-1.98c11-11.76,11.3-35.96,0.87-48.06c-9.75-11.32-21.48-17.12-36.72-14.9
		c-12.35,1.8-21.45,8.2-27.7,18.77c-7.29,12.32-6.61,24.99-0.96,37.64c2.04,4.57,4.93,8.58,9.85,10.57c0.2,1.6,1.07,2.83,2.42,3.56
		c6.55,3.54,13.08,7.2,20.96,6.41C139.9,169.12,141.63,169.05,143.36,168.98z M138.92,268.27c19.66,0,39.33,0.02,58.99-0.01
		c6.94-0.01,12.12-4.92,11.98-11.24c-0.16-7.15-4.77-11.74-11.91-11.74c-39.33-0.01-78.66-0.01-117.99,0
		c-7.66,0-12.06,4.21-12.07,11.44c-0.01,7.06,4.61,11.54,12,11.55C99.59,268.29,119.25,268.27,138.92,268.27z M139.95,204.3
		c-19.65,0-39.29,0.03-58.94-0.02c-5.14-0.01-8.89,2.06-11.37,6.6c-2.58,4.7-1.64,8.75,1.48,12.89c3.44,4.57,8.35,4.4,13.04,4.42
		c36.8,0.11,73.59,0.06,110.39,0.07c2.17,0,4.26-0.21,6.39-0.77c7.14-1.87,10.02-6.28,8.96-14.17c-0.68-5.03-5.94-9.01-11.99-9.01
		C178.58,204.29,159.27,204.3,139.95,204.3z M138.59,312.26c-6.15,0-12.31-0.02-18.46,0c-9.02,0.03-14.75,6.03-15.35,14.75
		c-0.65,9.3,6.63,16.31,14.92,16.28c12.81-0.05,25.62-0.16,38.42,0.04c8.48,0.13,15.5-8.19,14.95-15.86
		c-0.64-8.83-6.15-15.05-15.01-15.2C151.57,312.18,145.08,312.26,138.59,312.26z"/>
	<path class="st5" d="M190.07,359.51c-0.69-7.39-2.16-14.81-1.9-22.17c0.41-11.7,2.25-23.21,7.13-34.19
		c6.07-13.63,15.92-23.8,27.43-32.7c0.86-0.67,2.13-0.81,3.21-1.19c-4.51,5.67-6.39,12.39-6.87,19.39
		c-0.68,9.75-1.67,19.51-1.12,29.32c0.27,4.83,1.15,9.56,2.93,14.03c3.65,9.17,11.1,13.19,20.43,14.45
		c-14.19,8.05-29.69,11.43-45.75,12.75C193.73,359.36,191.9,359.41,190.07,359.51z"/>
	<path class="st6" d="M285.88,363.9c3.55-3.68,6.25-8.7,10.1-9.85c3.72-1.11,7.62,3.7,11.57,5.67c2.3,1.15,4.48,2.55,7.3,4.18
		C304.73,363.9,295.39,363.9,285.88,363.9z"/>
	<path class="st2" d="M206.83,388.12c0.04-0.66,0.09-1.32,0.13-1.98c0.66,0.36,1.32,0.73,1.98,1.09
		C208.52,388.2,207.73,388.29,206.83,388.12z"/>
	<path class="st1" d="M225.89,269.3c0.35-0.35,0.7-0.7,1.05-1.05C226.59,268.6,226.24,268.95,225.89,269.3z"/>
	<path class="st5" d="M454,148.78c0,7.2-5.36,12.56-12.56,12.56c-7,0-12.49-5.26-12.57-12.03c-0.09-7.56,5.24-13.11,12.57-13.1
		C448.61,136.21,453.99,141.61,454,148.78z"/>
	<path class="st6" d="M138.92,268.27c-19.66,0-39.33,0.01-58.99-0.01c-7.39-0.01-12.01-4.49-12-11.55
		c0.01-7.22,4.41-11.43,12.07-11.44c39.33-0.01,78.66-0.01,117.99,0c7.15,0,11.76,4.59,11.91,11.74
		c0.14,6.33-5.04,11.23-11.98,11.24C178.25,268.29,158.58,268.27,138.92,268.27z M142.89,259.82c1.76-0.15,3.02-1.07,3.12-2.98
		c0.09-1.92-1.13-3.13-2.94-3.25c-1.88-0.13-3.06,1.1-3.18,2.97C139.76,258.48,140.91,259.51,142.89,259.82z M124.34,259.78
		c1.96-0.23,3.04-1.34,2.92-3.32c-0.11-1.73-1.23-2.83-2.9-2.86c-1.92-0.04-3.17,1.16-3.22,3.09
		C121.09,258.7,122.43,259.61,124.34,259.78z M108.56,256.49c-0.46-1.76-1.44-3.12-3.4-2.88c-1.89,0.23-2.86,1.6-2.66,3.52
		c0.18,1.72,1.34,2.69,3.03,2.62C107.5,259.67,108.41,258.39,108.56,256.49z M136.74,256.46c-0.3-1.72-1.46-2.93-3.25-2.89
		c-1.79,0.04-3.1,1.29-3.03,3.18c0.06,1.84,1.25,3.04,3.18,2.98C135.55,259.67,136.55,258.49,136.74,256.46z M152.34,253.49
		c-1.87,0.29-3.17,1.37-3.15,3.25c0.01,1.91,1.29,3.06,3.26,2.99c1.72-0.07,2.82-1.11,2.89-2.84
		C155.4,254.92,154.19,253.87,152.34,253.49z M114.73,253.52c-1.86,0.46-3.04,1.47-2.88,3.46c0.14,1.73,1.23,2.74,2.92,2.75
		c1.94,0.01,3.15-1.12,3.12-3.07C117.86,254.72,116.5,253.82,114.73,253.52z M161.61,253.51c-1.82,0.43-3,1.42-2.91,3.4
		c0.08,1.75,1.15,2.76,2.84,2.81c1.94,0.05,3.18-1.12,3.18-3.01C164.73,254.83,163.44,253.8,161.61,253.51z M86.72,253.49
		c-1.59,0.34-2.97,1.05-3.02,3.1c-0.04,1.71,0.77,2.88,2.52,3.1c1.96,0.25,3.25-0.78,3.48-2.66
		C89.93,255.11,88.68,254.04,86.72,253.49z M99.01,256.34c-0.24-1.79-1.37-2.98-3.26-2.73c-1.78,0.24-2.92,1.57-2.67,3.51
		c0.21,1.69,1.38,2.64,3.06,2.58C98.1,259.64,99.05,258.45,99.01,256.34z"/>
	<path class="st6" d="M139.95,204.3c19.31,0,38.63-0.01,57.94,0c6.05,0,11.32,3.99,11.99,9.01c1.06,7.88-1.82,12.3-8.96,14.17
		c-2.13,0.56-4.22,0.77-6.39,0.77c-36.8-0.01-73.59,0.04-110.39-0.07c-4.69-0.01-9.6,0.15-13.04-4.42
		c-3.12-4.14-4.06-8.19-1.48-12.89c2.49-4.54,6.23-6.61,11.37-6.6C100.66,204.33,120.31,204.3,139.95,204.3z M139.91,213.02
		c-17,0-33.99-0.01-50.99,0.01c-2.3,0-5.16-0.36-5.11,3.11c0.05,3.39,2.86,3.09,5.18,3.09c33.49,0.01,66.99,0.01,100.48,0
		c2.31,0,5.22,0.37,5.36-2.92c0.17-3.79-3.01-3.26-5.44-3.27C172.9,213.02,156.41,213.03,139.91,213.02z"/>
	<path class="st6" d="M114.78,159.21c-4.92-1.99-7.81-6.01-9.85-10.57c-5.65-12.65-6.33-25.32,0.96-37.64
		c6.25-10.56,15.35-16.97,27.7-18.77c15.24-2.22,26.97,3.58,36.72,14.9c10.43,12.11,10.13,36.3-0.87,48.06
		c-0.9,0.96-1.77,2.04-3.3,1.98c0-4.25-2.07-7.28-5.86-8.93c-3.29-1.43-6.68-2.71-10.34-2.94c-1.21-0.7-2.46-1.2-3.9-1.04
		c0.26-1.66,0.53-3.32,0.79-4.98c3.75-2.91,6.18-6.69,7.37-11.27c0.76-0.44,0.75-1.11,0.57-1.84l0.01-0.03
		c5.01-4.1,5.34-7.32,1.07-10.59c-0.17-2.98,0.24-5.98-0.67-8.93c-0.94-3.06-2.62-5.48-5.69-6.49c-6.52-2.14-13.25-3.23-20.11-3.25
		c-3.11-0.01-4.99,1.46-4.75,4.95c0.47,6.81,0.38,13.69,1.39,20.41c1.03,6.83,2.09,14.01,8.97,18.11c0.3,1.62,0.6,3.23,0.9,4.85
		c-1.36-0.46-2.75-1.75-4.01,0.17C122.01,145.35,115.99,150.22,114.78,159.21z"/>
	<path class="st6" d="M138.59,312.26c6.49,0,12.97-0.08,19.46,0.02c8.86,0.14,14.37,6.37,15.01,15.2
		c0.55,7.66-6.47,15.99-14.95,15.86c-12.8-0.2-25.61-0.09-38.42-0.04c-8.29,0.03-15.57-6.98-14.92-16.28
		c0.61-8.72,6.33-14.72,15.35-14.75C126.28,312.24,132.44,312.26,138.59,312.26z"/>
	<path class="st1" d="M114.78,159.21c1.2-8.99,7.22-13.86,17.1-13.84c0.77,2.47,1.27,5.2,4.88,4.75c1.6,1.64,1.94,3.56,1.79,5.84
		c-0.3,4.4-0.28,8.81-0.39,13.22c-7.88,0.78-14.41-2.87-20.96-6.41C115.86,162.04,114.98,160.82,114.78,159.21z"/>
	<path class="st1" d="M149.94,145.32c3.66,0.23,7.06,1.5,10.34,2.94c3.78,1.65,5.85,4.67,5.86,8.93
		c-3.25,6.64-9.84,8.44-15.97,10.74c-2.11,0.79-4.53,0.73-6.81,1.05c-0.22-3.8-0.26-7.63-0.71-11.4c-0.31-2.66-1.05-5.24,1.2-7.43
		C147.57,150.66,148.51,147.68,149.94,145.32z"/>
	<path class="st3" d="M143.86,150.15c-2.25,2.18-1.51,4.77-1.2,7.43c0.44,3.78,0.49,7.6,0.71,11.4c-1.73,0.07-3.46,0.14-5.19,0.21
		c0.11-4.41,0.09-8.82,0.39-13.22c0.15-2.28-0.19-4.2-1.79-5.84C139.14,147.32,141.5,147.66,143.86,150.15z"/>
	<path class="st5" d="M142.89,259.82c-1.99-0.3-3.13-1.33-3.01-3.27c0.12-1.87,1.3-3.09,3.18-2.97c1.81,0.12,3.03,1.33,2.94,3.25
		C145.92,258.74,144.66,259.67,142.89,259.82z"/>
	<path class="st5" d="M124.34,259.78c-1.91-0.17-3.25-1.07-3.2-3.09c0.05-1.93,1.3-3.13,3.22-3.09c1.67,0.03,2.8,1.14,2.9,2.86
		C127.38,258.44,126.31,259.54,124.34,259.78z"/>
	<path class="st5" d="M108.56,256.49c-0.15,1.9-1.06,3.18-3.02,3.26c-1.7,0.06-2.85-0.9-3.03-2.62c-0.2-1.91,0.77-3.29,2.66-3.52
		C107.12,253.37,108.1,254.73,108.56,256.49z"/>
	<path class="st5" d="M136.74,256.46c-0.19,2.03-1.19,3.21-3.1,3.27c-1.93,0.06-3.12-1.14-3.18-2.98c-0.06-1.88,1.24-3.14,3.03-3.18
		C135.28,253.53,136.43,254.74,136.74,256.46z"/>
	<path class="st5" d="M152.34,253.49c1.86,0.39,3.06,1.43,2.99,3.39c-0.06,1.74-1.17,2.78-2.89,2.84c-1.97,0.07-3.25-1.08-3.26-2.99
		C149.17,254.86,150.47,253.78,152.34,253.49z"/>
	<path class="st5" d="M114.73,253.52c1.77,0.3,3.13,1.2,3.16,3.14c0.03,1.95-1.18,3.09-3.12,3.07c-1.7-0.01-2.79-1.02-2.92-2.75
		C111.69,254.99,112.87,253.98,114.73,253.52z"/>
	<path class="st5" d="M161.61,253.51c1.83,0.29,3.12,1.32,3.11,3.2c0,1.9-1.24,3.07-3.18,3.01c-1.69-0.05-2.75-1.06-2.84-2.81
		C158.61,254.93,159.79,253.94,161.61,253.51z"/>
	<path class="st5" d="M86.72,253.49c1.96,0.55,3.21,1.62,2.98,3.54c-0.23,1.88-1.52,2.91-3.48,2.66c-1.75-0.22-2.55-1.39-2.52-3.1
		C83.75,254.54,85.13,253.83,86.72,253.49z"/>
	<path class="st5" d="M99.01,256.34c0.04,2.1-0.91,3.3-2.87,3.37c-1.68,0.06-2.85-0.9-3.06-2.58c-0.24-1.94,0.89-3.26,2.67-3.51
		C97.63,253.36,98.77,254.56,99.01,256.34z"/>
	<path class="st5" d="M139.91,213.03c16.5,0,32.99-0.01,49.49,0.02c2.43,0,5.61-0.52,5.44,3.27c-0.14,3.29-3.05,2.92-5.36,2.92
		c-33.49,0.01-66.99,0.01-100.48,0c-2.32,0-5.14,0.31-5.18-3.09c-0.05-3.47,2.8-3.11,5.11-3.11
		C105.92,213.01,122.91,213.02,139.91,213.03z"/>
	<path class="st3" d="M154.2,128.02c-1.19,4.58-3.61,8.36-7.37,11.27c-3.83,1.63-7.74,2.46-11.84,1.06
		c-6.88-4.09-7.94-11.28-8.97-18.11c-1.01-6.72-0.92-13.6-1.39-20.41c-0.24-3.49,1.64-4.96,4.75-4.95
		c6.86,0.02,13.6,1.11,20.11,3.25c3.07,1.01,4.75,3.43,5.69,6.49c0.91,2.95,0.5,5.95,0.67,8.93c-0.36,3.53-0.71,7.06-1.07,10.59
		c0,0-0.01,0.03-0.01,0.03C154.12,126.65,153.99,127.28,154.2,128.02z M128.56,120.73c0.12,1.66,0.12,3.33,0.4,4.97
		c0.34,1.98,1.35,3.02,3.48,1.82c4.91-2.76,9.89-2.28,14.91-0.33c1.23,0.48,2.42,1.04,3.58-0.34c1.59-1.9,2.34-10.53,0.96-12.47
		c-2.58-3.63-11.86-5.65-17.69-3.97C128.77,111.97,128.39,116.16,128.56,120.73z"/>
	<path class="st2" d="M143.86,150.15c-2.36-2.49-4.72-2.82-7.09-0.03c-3.61,0.46-4.12-2.28-4.88-4.75c1.26-1.92,2.65-0.63,4.01-0.17
		c3.55,1.53,6.97,1.53,10.16-0.93c1.43-0.16,2.69,0.34,3.9,1.04C148.51,147.68,147.57,150.66,143.86,150.15z"/>
	<path class="st4" d="M146.05,144.28c-3.19,2.46-6.6,2.46-10.16,0.93c-0.3-1.62-0.6-3.24-0.9-4.85c4.11,1.4,8.01,0.57,11.85-1.06
		C146.57,140.96,146.31,142.62,146.05,144.28z"/>
	<path class="st4" d="M154.78,126.16c0.36-3.53,0.71-7.06,1.07-10.59C160.12,118.84,159.79,122.05,154.78,126.16z"/>
	<path class="st4" d="M154.2,128.02c-0.22-0.74-0.08-1.37,0.57-1.84C154.96,126.91,154.96,127.58,154.2,128.02z"/>
	<path class="st4" d="M128.56,120.73c-0.16-4.57,0.21-8.76,5.64-10.33c5.83-1.69,15.11,0.34,17.69,3.97
		c1.38,1.95,0.64,10.58-0.96,12.47c-1.16,1.38-2.34,0.82-3.58,0.34c-5.02-1.95-10.01-2.43-14.91,0.33c-2.13,1.2-3.14,0.16-3.48-1.82
		C128.68,124.07,128.68,122.39,128.56,120.73z"/>
</g>
</svg>
